<svg xmlns="http://www.w3.org/2000/svg" version="1.1" xmlns:xlink="http://www.w3.org/1999/xlink" xmlns:svgjs="http://svgjs.dev/svgjs" width="1440" height="560" preserveAspectRatio="none" viewBox="0 0 1440 560"><g mask="url(&quot;#SvgjsMask1003&quot;)" fill="none"><g transform="translate(0, 0)" stroke-linecap="round"><path d="M260 204.13 L260 355.87" stroke-width="15" stroke="rgba(242, 112, 18, 1)"></path><path d="M280 230.03 L280 329.97" stroke-width="15" stroke="rgba(242, 112, 18, 1)"></path><path d="M300 171.71 L300 388.29" stroke-width="15" stroke="rgba(107, 55, 209, 1)"></path><path d="M320 220.16 L320 339.84" stroke-width="15" stroke="rgba(242, 112, 18, 1)"></path><path d="M340 213.47 L340 346.52" stroke-width="15" stroke="rgba(242, 112, 18, 1)"></path><path d="M360 241.8 L360 318.2" stroke-width="15" stroke="rgba(242, 112, 18, 1)"></path><path d="M380 187.4 L380 372.6" stroke-width="15" stroke="rgba(107, 55, 209, 1)"></path><path d="M400 241.2 L400 318.8" stroke-width="15" stroke="rgba(242, 112, 18, 1)"></path><path d="M420 220.45 L420 339.55" stroke-width="15" stroke="rgba(242, 112, 18, 1)"></path><path d="M440 125.18 L440 434.82" stroke-width="15" stroke="rgba(242, 112, 18, 1)"></path><path d="M460 164.11 L460 395.89" stroke-width="15" stroke="rgba(107, 55, 209, 1)"></path><path d="M480 249.47 L480 310.53" stroke-width="15" stroke="rgba(107, 55, 209, 1)"></path><path d="M500 218.48 L500 341.52" stroke-width="15" stroke="rgba(107, 55, 209, 1)"></path><path d="M520 171.16 L520 388.84" stroke-width="15" stroke="rgba(242, 112, 18, 1)"></path><path d="M540 127.54 L540 432.46" stroke-width="15" stroke="rgba(107, 55, 209, 1)"></path><path d="M560 167.37 L560 392.63" stroke-width="15" stroke="rgba(107, 55, 209, 1)"></path><path d="M580 191.67 L580 368.33" stroke-width="15" stroke="rgba(107, 55, 209, 1)"></path><path d="M600 190.51 L600 369.49" stroke-width="15" stroke="rgba(242, 112, 18, 1)"></path><path d="M620 223.5 L620 336.5" stroke-width="15" stroke="rgba(107, 55, 209, 1)"></path><path d="M640 203.56 L640 356.44" stroke-width="15" stroke="rgba(107, 55, 209, 1)"></path><path d="M660 248.14 L660 311.86" stroke-width="15" stroke="rgba(242, 112, 18, 1)"></path><path d="M680 183.19 L680 376.81" stroke-width="15" stroke="rgba(242, 112, 18, 1)"></path><path d="M700 246.25 L700 313.75" stroke-width="15" stroke="rgba(107, 55, 209, 1)"></path><path d="M720 190.97 L720 369.03" stroke-width="15" stroke="rgba(242, 112, 18, 1)"></path><path d="M740 161.97 L740 398.03" stroke-width="15" stroke="rgba(107, 55, 209, 1)"></path><path d="M760 259.9 L760 300.1" stroke-width="15" stroke="rgba(242, 112, 18, 1)"></path><path d="M780 162.75 L780 397.25" stroke-width="15" stroke="rgba(242, 112, 18, 1)"></path><path d="M800 200.22 L800 359.78" stroke-width="15" stroke="rgba(107, 55, 209, 1)"></path><path d="M820 212.12 L820 347.88" stroke-width="15" stroke="rgba(242, 112, 18, 1)"></path><path d="M840 261.09 L840 298.91" stroke-width="15" stroke="rgba(242, 112, 18, 1)"></path><path d="M860 207.66 L860 352.34" stroke-width="15" stroke="rgba(242, 112, 18, 1)"></path><path d="M880 251.07 L880 308.93" stroke-width="15" stroke="rgba(242, 112, 18, 1)"></path><path d="M900 105.5 L900 454.5" stroke-width="15" stroke="rgba(242, 112, 18, 1)"></path><path d="M920 138.66 L920 421.34" stroke-width="15" stroke="rgba(107, 55, 209, 1)"></path><path d="M940 205.03 L940 354.98" stroke-width="15" stroke="rgba(107, 55, 209, 1)"></path><path d="M960 156.3 L960 403.7" stroke-width="15" stroke="rgba(242, 112, 18, 1)"></path><path d="M980 204.83 L980 355.17" stroke-width="15" stroke="rgba(242, 112, 18, 1)"></path><path d="M1000 175.21 L1000 384.79" stroke-width="15" stroke="rgba(242, 112, 18, 1)"></path><path d="M1020 240.32 L1020 319.68" stroke-width="15" stroke="rgba(107, 55, 209, 1)"></path><path d="M1040 144.81 L1040 415.19" stroke-width="15" stroke="rgba(242, 112, 18, 1)"></path><path d="M1060 233.03 L1060 326.97" stroke-width="15" stroke="rgba(242, 112, 18, 1)"></path><path d="M1080 126 L1080 434" stroke-width="15" stroke="rgba(242, 112, 18, 1)"></path><path d="M1100 234.23 L1100 325.77" stroke-width="15" stroke="rgba(107, 55, 209, 1)"></path><path d="M1120 207.44 L1120 352.56" stroke-width="15" stroke="rgba(242, 112, 18, 1)"></path><path d="M1140 152.68 L1140 407.32" stroke-width="15" stroke="rgba(107, 55, 209, 1)"></path><path d="M1160 133.71 L1160 426.29" stroke-width="15" stroke="rgba(107, 55, 209, 1)"></path><path d="M1180 165.59 L1180 394.41" stroke-width="15" stroke="rgba(107, 55, 209, 1)"></path></g></g><defs><mask id="SvgjsMask1003"><rect width="1440" height="560" fill="#ffffff"></rect></mask></defs></svg>